<svg width="16" height="16" viewBox="0 0 16 16" fill="none" xmlns="http://www.w3.org/2000/svg">
<path d="M14.7729 1.22542C14.7689 1.22145 14.7648 1.21749 14.7607 1.2136C13.2781 -0.258287 10.9151 -0.410165 9.25768 0.8612C9.0918 0.988083 8.95814 1.10346 8.83708 1.22423C8.83359 1.22772 8.83018 1.23121 8.82677 1.23479L6.17426 3.88837C5.9419 4.12079 5.9419 4.49763 6.17433 4.72997C6.40677 4.96247 6.7835 4.96239 7.01569 4.72989L9.67804 2.06639C9.68082 2.06361 9.68352 2.06083 9.68629 2.05805C9.76745 1.97791 9.86121 1.89777 9.981 1.80619C11.1716 0.89302 12.8694 1.00491 13.9307 2.06655C13.9342 2.07004 13.9378 2.07353 13.9413 2.07694C15.1036 3.25023 15.1004 5.15116 13.9315 6.32088L11.2693 8.98415C11.0369 9.21657 11.0369 9.5934 11.2694 9.82574C11.3856 9.94191 11.5378 10 11.6901 10C11.8423 10 11.9946 9.94191 12.1108 9.82567L14.7731 7.1624C16.409 5.52531 16.409 2.86196 14.7729 1.22542Z" fill="black"/>
<path d="M8.98411 11.269L6.32285 13.9298C6.31761 13.9351 6.31238 13.9406 6.3073 13.9461C6.01309 14.2355 5.66787 14.4577 5.2802 14.6071C4.16978 15.0369 2.90878 14.7713 2.06829 13.9309C0.896543 12.7581 0.896543 10.8498 2.06829 9.67738L4.73082 7.01637C4.84238 6.90475 4.90514 6.75339 4.90514 6.59552V6.59449C4.90514 6.26583 4.63878 6 4.31006 6C4.14066 6 3.98777 6.071 3.87939 6.18468L1.22653 8.83602C-0.408738 10.4724 -0.408897 13.1353 1.22637 14.7721C2.02735 15.573 3.1011 16 4.1947 16C4.70361 15.9999 5.21696 15.9074 5.70889 15.7171C6.25811 15.5055 6.74734 15.188 7.16294 14.7734C7.16897 14.7675 7.17484 14.7613 7.18063 14.755L9.82571 12.1104C10.0581 11.878 10.0581 11.5013 9.82563 11.269C9.59339 11.0367 9.21659 11.0367 8.98411 11.269Z" fill="black"/>
<path d="M5.16237 10.8376C5.27067 10.9459 5.41253 11 5.55446 11C5.69632 11 5.83825 10.9459 5.94648 10.8377L10.8375 5.94652C11.0541 5.72998 11.0541 5.3789 10.8376 5.16244C10.6211 4.94583 10.27 4.9459 10.0536 5.16236L5.16252 10.0535C4.94585 10.27 4.94585 10.621 5.16237 10.8376Z" fill="black"/>
</svg>
