<svg width="15" height="14" viewBox="0 0 15 14" fill="none" xmlns="http://www.w3.org/2000/svg">
<path d="M14 7.19445C14.0023 8.00104 13.7967 8.79671 13.4 9.51667C12.9296 10.3794 12.2065 11.1051 11.3116 11.6123C10.4168 12.1196 9.38548 12.3885 8.33332 12.3889C7.45341 12.391 6.5854 12.2025 5.79999 11.8389L2 13L3.26666 9.51667C2.86995 8.79671 2.66437 8.00104 2.66667 7.19445C2.66707 6.22997 2.96041 5.28464 3.51381 4.46435C4.06721 3.64406 4.85883 2.9812 5.79999 2.55002C6.5854 2.18636 7.45341 1.99791 8.33332 2.00002H8.66666C10.0562 2.07029 11.3687 2.60793 12.3527 3.50998C13.3368 4.41204 13.9233 5.61513 14 6.8889V7.19445Z" stroke="#6b7280" stroke-linecap="round" stroke-linejoin="round"/>
<line x1="6" y1="6.5" x2="11" y2="6.5" stroke="#6b7280"/>
<line x1="6" y1="8.5" x2="10" y2="8.5" stroke="#6b7280"/>
</svg>
