<svg width="19" height="16" viewBox="0 0 19 16" fill="none" xmlns="http://www.w3.org/2000/svg">
<path d="M17.5936 0.00149037C17.3481 0.0121977 17.1168 0.0791187 16.9112 0.15407H16.9084C16.6999 0.231699 15.7092 0.622518 14.2045 1.2141C12.6998 1.80836 10.7468 2.57929 8.80814 3.34487C4.93648 4.87335 1.13049 6.37773 1.13049 6.37773L1.17618 6.36167C1.17618 6.36167 0.913499 6.44198 0.639399 6.61865C0.499495 6.70431 0.345313 6.82209 0.211119 7.00679C0.0769242 7.19149 -0.031574 7.47524 0.00839926 7.76702C0.0740692 8.26223 0.416694 8.55936 0.662241 8.72265C0.910644 8.88861 1.14763 8.96624 1.14763 8.96624H1.15334L4.72234 10.0932C4.88223 10.575 5.81018 13.4339 6.03288 14.0924C6.16422 14.4859 6.29271 14.7322 6.4526 14.9195C6.52969 15.0159 6.62105 15.0962 6.72955 15.1605C6.77238 15.1846 6.81806 15.2033 6.86375 15.2193C6.87802 15.2274 6.8923 15.2301 6.90943 15.2327L6.87231 15.2247C6.88373 15.2274 6.8923 15.2354 6.90086 15.2381C6.92942 15.2461 6.9494 15.2488 6.98652 15.2541C7.55185 15.4148 8.00583 15.0855 8.00583 15.0855L8.03152 15.0668L10.1387 13.2679L13.6706 15.8083L13.7505 15.8404C14.4871 16.1429 15.2324 15.9742 15.6264 15.6771C16.0232 15.3773 16.1774 14.9945 16.1774 14.9945L16.2031 14.9329L18.9327 1.82442C19.0098 1.50052 19.0298 1.19804 18.9441 0.903587C18.8585 0.609134 18.6386 0.333419 18.3731 0.186192C18.1047 0.0362892 17.8392 -0.00921701 17.5936 0.00149037ZM17.5194 1.40683C17.5165 1.44966 17.5251 1.44431 17.5051 1.52729V1.53532L14.8012 14.5073C14.7898 14.526 14.7698 14.5662 14.7156 14.6064C14.6585 14.6492 14.6128 14.676 14.3758 14.5876L10.0559 11.4825L7.44621 13.7123L7.99441 10.4305C7.99441 10.4305 14.7612 4.51733 15.0525 4.26303C15.3437 4.00873 15.2466 3.95519 15.2466 3.95519C15.2666 3.64468 14.8069 3.86418 14.8069 3.86418L5.90725 9.03316L5.9044 9.01978L1.63872 7.67333V7.67065C1.63587 7.67065 1.63016 7.66797 1.6273 7.66797C1.63016 7.66797 1.65014 7.65994 1.65014 7.65994L1.67298 7.64923L1.69583 7.6412C1.69583 7.6412 5.50467 6.13682 9.37633 4.60834C11.315 3.84276 13.268 3.07183 14.7698 2.47757C16.2716 1.88599 17.3823 1.45234 17.4451 1.42825C17.5051 1.40683 17.4765 1.40683 17.5194 1.40683Z" fill="black"/>
</svg>
