<svg width="17" height="17" viewBox="0 0 17 17" fill="none" xmlns="http://www.w3.org/2000/svg">
<path d="M12.5523 10.1405C12.5174 10.1224 11.2111 9.42481 10.979 9.33421C10.8843 9.29731 10.7827 9.26128 10.6748 9.26128C10.4984 9.26128 10.3502 9.35661 10.2348 9.54385C10.1043 9.75419 9.70934 10.2549 9.58729 10.4045C9.57135 10.4242 9.54959 10.4478 9.53656 10.4478C9.52487 10.4478 9.32272 10.3576 9.26152 10.3287C7.86031 9.66864 6.79673 8.08129 6.65089 7.8136C6.63006 7.77512 6.62919 7.75764 6.62901 7.75764C6.63413 7.73727 6.68125 7.68604 6.70557 7.65961C6.77672 7.58327 6.8538 7.48264 6.92837 7.3853C6.96368 7.33918 6.99905 7.293 7.03378 7.24947C7.14198 7.11295 7.19015 7.00696 7.246 6.88419L7.27526 6.82041C7.41162 6.52661 7.29515 6.27867 7.25752 6.19861C7.22663 6.13162 6.67509 4.68804 6.61645 4.53637C6.47544 4.1704 6.28911 4 6.03018 4C6.00616 4 6.03018 4 5.92943 4.00461C5.80674 4.01022 5.13862 4.10561 4.84322 4.30755C4.52996 4.52174 4 5.20448 4 6.40516C4 7.4858 4.63234 8.50612 4.90383 8.89417C4.91058 8.90395 4.92297 8.92383 4.94095 8.95234C5.98068 10.5991 7.27683 11.8194 8.59079 12.3887C9.85576 12.9367 10.4548 13 10.7953 13H10.7954C10.9385 13 11.053 12.9878 11.1541 12.977L11.2182 12.9704C11.6552 12.9284 12.6155 12.3887 12.8339 11.7304C13.006 11.2119 13.0514 10.6454 12.9369 10.4398C12.8585 10.3 12.7233 10.2296 12.5523 10.1405Z" fill="black"/>
<path d="M8.6509 0C4.04676 0 0.30102 3.71759 0.30102 8.28711C0.30102 9.76507 0.696546 11.2118 1.44582 12.4779L0.0116885 16.7084C-0.0150258 16.7872 0.00484433 16.8744 0.0631853 16.9338C0.105299 16.9768 0.162426 17 0.220767 17C0.24312 17 0.26564 16.9966 0.287608 16.9896L4.69878 15.5879C5.90589 16.2328 7.2702 16.5733 8.65095 16.5733C13.2546 16.5733 17 12.8561 17 8.28711C17 3.71759 13.2546 0 8.6509 0ZM8.6509 14.8471C7.35166 14.8471 6.09328 14.4719 5.01157 13.7621C4.9752 13.7382 4.93297 13.726 4.89047 13.726C4.86801 13.726 4.84549 13.7294 4.82358 13.7363L2.61385 14.4387L3.32719 12.3342C3.35026 12.2661 3.33872 12.191 3.29622 12.1329C2.4725 11.0074 2.03706 9.67758 2.03706 8.28711C2.03706 4.66948 5.00401 1.72627 8.65084 1.72627C12.2972 1.72627 15.2638 4.66948 15.2638 8.28711C15.2639 11.9043 12.2973 14.8471 8.6509 14.8471Z" fill="black"/>
</svg>
